<svg enable-background="new 0 0 100 100" height="100" viewBox="0 0 100 100" width="100" xmlns="http://www.w3.org/2000/svg"><path d="m45.509 91.846 11.76-18.452c-18.096-36.503 17.541-71.464 32.341-49.889-6.961-24.759-69.356-1.463-44.101 68.341z" fill="#1b75bb"/><path d="m30.79 68.751c-3.91-27.274 15.076-51.307 26-50.866-8.589-2.539-30.467 6.289-35.721 35.6z" fill="#1b75bb"/><g fill="#231f20"><path d="m38.327 36.915c-4.381 8.448-7.25 19.481-5.522 31.543l.642 4.456 7.714 12.114c-6.381-22.21-3.34-38.014 1.116-48.114h-3.95z"/><path d="m24.375 36.915h-13.861l8.973 14.085c1.144-5.376 2.831-10.047 4.888-14.085z"/><path d="m57.426 36.915c-4.477 10.671-4.121 23.083 1.144 34.435l21.935-34.435z"/></g></svg>